{
	"asset":{
		"generator":"Khronos glTF Blender I/O v4.3.47",
		"version":"2.0"
	},
	"extensionsUsed":[
		"KHR_materials_clearcoat"
	],
	"scene":0,
	"scenes":[
		{
			"name":"Scene",
			"nodes":[
				0,
				1
			]
		}
	],
	"nodes":[
		{
			"mesh":0,
			"name":"tub-b",
			"rotation":[
				0.7071068286895752,
				0,
				0,
				0.7071068286895752
			],
			"scale":[
				8.198296546936035,
				8.198296546936035,
				8.198296546936035
			],
			"translation":[
				-0.0007492961012758315,
				-0.5662132501602173,
				-0.0023216765839606524
			]
		},
		{
			"mesh":1,
			"name":"Cylinder",
			"scale":[
				0.4463743567466736,
				0.06221591681241989,
				0.4567897319793701
			],
			"translation":[
				-0.006484993267804384,
				0.3700524866580963,
				0.0005604380858130753
			]
		}
	],
	"materials":[
		{
			"doubleSided":true,
			"extensions":{
				"KHR_materials_clearcoat":{
					"clearcoatFactor":0.22047242522239685,
					"clearcoatRoughnessFactor":1
				}
			},
			"name":"Material.007",
			"pbrMetallicRoughness":{
				"baseColorTexture":{
					"index":0
				},
				"metallicFactor":0.3700787425041199,
				"roughnessFactor":0.5
			}
		},
		{
			"doubleSided":true,
			"name":"Material.001",
			"pbrMetallicRoughness":{
				"baseColorFactor":[
					0.744140625,
					0.0132598876953125,
					0.0194244384765625,
					1
				],
				"metallicFactor":0.14960628747940063,
				"roughnessFactor":0.5
			}
		},
		{
			"doubleSided":true,
			"name":"Material.002",
			"pbrMetallicRoughness":{
				"baseColorFactor":[
					0.74658203125,
					0.013294219970703125,
					0.01946258544921875,
					1
				],
				"metallicFactor":0.20472440123558044
			}
		}
	],
	"meshes":[
		{
			"name":"tub-b",
			"primitives":[
				{
					"attributes":{
						"POSITION":0,
						"NORMAL":1,
						"TEXCOORD_0":2
					},
					"indices":3,
					"material":0
				}
			]
		},
		{
			"name":"Cylinder",
			"primitives":[
				{
					"attributes":{
						"POSITION":4,
						"NORMAL":5,
						"TEXCOORD_0":6
					},
					"indices":7,
					"material":1
				},
				{
					"attributes":{
						"POSITION":8,
						"NORMAL":9,
						"TEXCOORD_0":10
					},
					"indices":7,
					"material":2
				}
			]
		}
	],
	"textures":[
		{
			"sampler":0,
			"source":0
		}
	],
	"images":[
		{
			"mimeType":"image/png",
			"name":"Untitled-2-Recoveredcf",
			"uri":"Untitled-2-Recoveredcf.png"
		}
	],
	"accessors":[
		{
			"bufferView":0,
			"componentType":5126,
			"count":1769,
			"max":[
				0.052928000688552856,
				0.05299999937415123,
				-0.0011950000189244747
			],
			"min":[
				-0.0530720017850399,
				-0.05299999937415123,
				-0.11019500344991684
			],
			"type":"VEC3"
		},
		{
			"bufferView":1,
			"componentType":5126,
			"count":1769,
			"type":"VEC3"
		},
		{
			"bufferView":2,
			"componentType":5126,
			"count":1769,
			"type":"VEC2"
		},
		{
			"bufferView":3,
			"componentType":5123,
			"count":6762,
			"type":"SCALAR"
		},
		{
			"bufferView":4,
			"componentType":5126,
			"count":130,
			"max":[
				1,
				1,
				1
			],
			"min":[
				-1,
				-1,
				-1
			],
			"type":"VEC3"
		},
		{
			"bufferView":5,
			"componentType":5126,
			"count":130,
			"type":"VEC3"
		},
		{
			"bufferView":6,
			"componentType":5126,
			"count":130,
			"type":"VEC2"
		},
		{
			"bufferView":7,
			"componentType":5123,
			"count":372,
			"type":"SCALAR"
		},
		{
			"bufferView":8,
			"componentType":5126,
			"count":130,
			"max":[
				0.9412411451339722,
				1.315082311630249,
				0.9383780360221863
			],
			"min":[
				-0.9315571784973145,
				0.8928253650665283,
				-0.9350376725196838
			],
			"type":"VEC3"
		},
		{
			"bufferView":9,
			"componentType":5126,
			"count":130,
			"type":"VEC3"
		},
		{
			"bufferView":10,
			"componentType":5126,
			"count":130,
			"type":"VEC2"
		}
	],
	"bufferViews":[
		{
			"buffer":0,
			"byteLength":21228,
			"byteOffset":0,
			"target":34962
		},
		{
			"buffer":0,
			"byteLength":21228,
			"byteOffset":21228,
			"target":34962
		},
		{
			"buffer":0,
			"byteLength":14152,
			"byteOffset":42456,
			"target":34962
		},
		{
			"buffer":0,
			"byteLength":13524,
			"byteOffset":56608,
			"target":34963
		},
		{
			"buffer":0,
			"byteLength":1560,
			"byteOffset":70132,
			"target":34962
		},
		{
			"buffer":0,
			"byteLength":1560,
			"byteOffset":71692,
			"target":34962
		},
		{
			"buffer":0,
			"byteLength":1040,
			"byteOffset":73252,
			"target":34962
		},
		{
			"buffer":0,
			"byteLength":744,
			"byteOffset":74292,
			"target":34963
		},
		{
			"buffer":0,
			"byteLength":1560,
			"byteOffset":75036,
			"target":34962
		},
		{
			"buffer":0,
			"byteLength":1560,
			"byteOffset":76596,
			"target":34962
		},
		{
			"buffer":0,
			"byteLength":1040,
			"byteOffset":78156,
			"target":34962
		}
	],
	"samplers":[
		{
			"magFilter":9729,
			"minFilter":9987
		}
	],
	"buffers":[
		{
			"byteLength":79196,
			"uri":"joy%20ice%20cream%20tub.bin"
		}
	]
}
